<svg xmlns="http://www.w3.org/2000/svg" version="1.1" xmlns:xlink="http://www.w3.org/1999/xlink" xmlns:svgjs="http://svgjs.dev/svgjs" width="2000" height="1999" viewBox="0 0 2000 1999"><g transform="matrix(1,0,0,1,-0.431486880466764,-0.4312711370263287)"><svg viewBox="0 0 343 343" data-background-color="#ffffff" preserveAspectRatio="xMidYMid meet" height="1999" width="2000" xmlns="http://www.w3.org/2000/svg" xmlns:xlink="http://www.w3.org/1999/xlink"><g id="tight-bounds" transform="matrix(1,0,0,1,0.0740000000000407,0.07400000000001228)"><svg viewBox="0 0 342.85155851775386 342.85155851775386" height="342.85155851775386" width="342.85155851775386"><g><svg></svg></g><g><svg viewBox="0 0 342.85155851775386 342.85155851775386" height="342.85155851775386" width="342.85155851775386"><g><path d="M0 171.426c0-94.676 76.75-171.426 171.426-171.426 94.676 0 171.426 76.75 171.426 171.426 0 94.676-76.75 171.426-171.426 171.426-94.676 0-171.426-76.75-171.426-171.426zM171.426 335.642c90.694 0 164.216-73.522 164.216-164.216 0-90.694-73.522-164.216-164.216-164.216-90.694 0-164.216 73.522-164.216 164.216 0 90.694 73.522 164.216 164.216 164.216z" data-fill-palette-color="tertiary" fill="#ca3433" stroke="transparent"></path><ellipse rx="164.56874808852186" ry="164.56874808852186" cx="171.42577925887693" cy="171.42577925887693" fill="#ca3433" stroke="transparent" stroke-width="0" fill-opacity="1" data-fill-palette-color="tertiary"></ellipse></g><g transform="matrix(1,0,0,1,64.84655864529837,131.4514738183019)"><svg viewBox="0 0 213.1584412271571 79.94861088115003" height="79.94861088115003" width="213.1584412271571"><g><svg viewBox="0 0 213.1584412271571 79.94861088115003" height="79.94861088115003" width="213.1584412271571"><g><svg viewBox="0 0 213.1584412271571 79.94861088115003" height="79.94861088115003" width="213.1584412271571"><g><svg viewBox="0 0 213.1584412271571 79.94861088115003" height="79.94861088115003" width="213.1584412271571"><g id="textblocktransform"><svg viewBox="0 0 213.1584412271571 79.94861088115003" height="79.94861088115003" width="213.1584412271571" id="textblock"><g><svg viewBox="0 0 213.1584412271571 79.94861088115003" height="79.94861088115003" width="213.1584412271571"><g transform="matrix(1,0,0,1,0,0)"><svg width="213.1584412271571" viewBox="2.5 -35 93.84 35.2" height="79.94861088115003" data-palette-color="#ffffff"><path d="M5.75-32.25L2.5-32.25 2.5-35 12.6-35 12.6-32.25 9.15-32.25 9.15-15.05Q9.15-7.3 12.2-4.75L12.2-4.75Q13.65-3.5 15.15-3.03 16.65-2.55 18.65-2.55L18.65-2.55Q22.7-2.55 25.28-5.55 27.85-8.55 27.85-15.05L27.85-15.05 27.85-32.25 24.55-32.25 24.55-35 34.15-35 34.15-32.25 31-32.25 31-15Q31-7.15 27.55-3.48 24.1 0.2 18.65 0.2L18.65 0.2Q15.9 0.2 13.83-0.38 11.75-0.95 9.8-2.5L9.8-2.5Q5.75-5.65 5.75-15L5.75-15 5.75-32.25ZM41.7-32.25L38.65-32.25 38.65-35 50.7-35Q55.85-35 58.65-32.75 61.45-30.5 61.45-26.05L61.45-26.05Q61.45-23.1 59.37-19.93 57.3-16.75 55.3-15.6L55.3-15.6 63.2-2.75 66.75-2.75 66.75 0 61.25 0 52.35-14.35 45.1-14.35 45.1-2.75 48.75-2.75 48.75 0 38.65 0 38.65-2.75 41.7-2.75 41.7-32.25ZM50.45-32.25L50.45-32.25 45.1-32.25 45.1-17.1 53.35-17.1Q58.05-21.4 58.05-25.75L58.05-25.75Q58.05-28.95 56.1-30.6 54.15-32.25 50.45-32.25ZM86.45-32.25L83.75-32.25 83.75-35 93.45-35 93.45-32.25 90.25-32.25 80.09-18.55 92.55-2.75 96.34-2.75 96.34 0 94.75 0 90.9 0.05 76.4-18.3 86.45-32.25ZM79.84-32.25L76.4-32.25 76.4-2.75 79.84-2.75 79.84 0 69.75 0 69.75-2.75 73-2.75 73-32.25 69.75-32.25 69.75-35 79.84-35 79.84-32.25Z" opacity="1" transform="matrix(1,0,0,1,0,0)" fill="#ffffff" class="wordmark-text-0" data-fill-palette-color="quaternary" id="text-0"></path></svg></g></svg></g></svg></g></svg></g><g></g></svg></g></svg></g></svg></g></svg></g><defs></defs></svg><rect width="342.85155851775386" height="342.85155851775386" fill="none" stroke="none" visibility="hidden"></rect></g></svg></g></svg>